<?xml version="1.0" encoding="UTF-8"?>
<svg width="300px" height="48px" viewBox="0 0 300 48" version="1.1" xmlns="http://www.w3.org/2000/svg">
    <title>sie-logo-white-rgb</title>
    <g id="Symbols" stroke="none" stroke-width="1" fill="none" fill-rule="evenodd">
        <g id="Logo/White/Regular">
            <g id="sie-logo-white-rgb">
                <g id="BoundingBox">
                    <polygon id="Shape" points="0 48 300 48 300 0 0 0 0 0"/>
                </g>
                <g id="SIEMENS" fill="#FFFFFF">
                    <g id="Group">
                        <path d="M0.9258,46.0489057 L0.9258,36.9690566 C6.0615,38.5956226 10.6059,39.4089057 14.559,39.4089057 C20.0169,39.4089057 22.7463,37.9571321 22.7463,35.0556981 C22.7463,33.9740377 22.3491,33.0650566 21.5529,32.3290566 C20.7387,31.5483774 18.6534,30.4661132 15.3024,29.0795472 C9.2898,26.5916981 5.3691,24.4700377 3.5454,22.7151698 C1.1817,20.3987925 0,17.4777358 0,13.9477736 C0,9.40196226 1.722,5.93720755 5.1636,3.55622642 C8.5671,1.19607547 12.999,0.0172075472 18.4662,0.0172075472 C21.4785,0.0172075472 25.8384,0.57509434 31.5411,1.69237736 L31.5411,10.4268679 C27.2979,8.72120755 23.3592,7.87018868 19.7202,7.87018868 C14.5959,7.87018868 12.0339,9.28603774 12.0339,12.1240755 C12.0339,13.1849057 12.5499,14.0501132 13.5834,14.7209057 C14.4429,15.2636981 16.8111,16.4102642 20.6829,18.1642264 C26.2578,20.6556981 29.9691,22.821434 31.8183,24.6635472 C34.0125,26.8486038 35.1117,29.6760755 35.1117,33.1417358 C35.1117,38.1231698 32.9586,41.9230189 28.6554,44.541283 C25.1691,46.6644528 20.6484,47.7216604 15.096,47.7216604 C10.407,47.7216604 5.6826,47.1658868 0.9258,46.0489057 L0.9258,46.0489057 Z" id="Shape"/>
                        <polygon id="Shape" points="42.3189 0.816301887 42.3189 0.816301887 55.0809 0.816301887 55.0809 46.7927547 42.3189 46.7927547"/>
                        <polygon id="Shape" points="66.7848 46.7927547 66.7848 0.816301887 99.5163 0.816301887 99.5163 9.13207547 79.0848 9.13207547 79.0848 19.5136604 96.8694 19.5136604 96.8694 27.0988679 79.0848 27.0988679 79.0848 38.0093585 100.0428 38.0093585 100.0428 46.7927547"/>
                        <polygon id="Shape" points="108.3741 46.7927547 108.3741 0.816301887 124.9206 0.816301887 136.4163 30.1932075 148.2003 0.816301887 163.917 0.816301887 163.917 46.7927547 151.8168 46.7927547 151.8168 14.2403019 138.4176 47.2594717 130.5069 47.2594717 117.3657 14.2403019 117.3657 46.7927547"/>
                        <polygon id="Shape" points="175.6233 46.7927547 175.6233 0.816301887 208.3542 0.816301887 208.3542 9.13207547 187.9245 9.13207547 187.9245 19.5136604 205.7085 19.5136604 205.7085 27.0988679 187.9245 27.0988679 187.9245 38.0093585 208.884 38.0093585 208.884 46.7927547"/>
                        <polygon id="Shape" points="217.2813 46.7927547 217.2813 0.816301887 232.0725 0.816301887 247.7649 31.5939623 247.7649 0.816301887 256.7541 0.816301887 256.7541 46.7927547 242.3829 46.7927547 226.2741 15.6009057 226.2741 46.7927547"/>
                        <path d="M265.8141,46.0489057 L265.8141,36.9690566 C270.9063,38.5956226 275.4501,39.4089057 279.4497,39.4089057 C284.9082,39.4089057 287.6343,37.9571321 287.6343,35.0556981 C287.6343,33.9740377 287.2476,33.0650566 286.4781,32.3290566 C285.6597,31.5483774 283.5657,30.4661132 280.1946,29.0795472 C274.2,26.6122264 270.2754,24.4914717 268.4349,22.7151698 C266.0724,20.4193208 264.8928,17.4873962 264.8928,13.9163774 C264.8928,9.39018868 266.6106,5.93690566 270.0558,3.55592453 C273.4542,1.19577358 277.8912,0.0169056604 283.359,0.0169056604 C286.4331,0.0169056604 290.4165,0.508075472 295.302,1.4949434 L296.4303,1.69207547 L296.4303,10.426566 C292.1865,8.72090566 288.2364,7.86988679 284.5779,7.86988679 C279.4731,7.86988679 276.927,9.28573585 276.927,12.1237736 C276.927,13.1846038 277.4403,14.0498113 278.4711,14.7206038 C279.2901,15.242566 281.6679,16.3897358 285.6045,18.1639245 C291.1371,20.6553962 294.8406,22.8211321 296.706,24.6632453 C298.9035,26.8483019 300,29.6757736 300,33.141434 C300,38.1228679 297.8595,41.922717 293.5782,44.5409811 C290.0715,46.6641509 285.5394,47.7213586 279.9879,47.7213586 C275.2938,47.7213586 270.5673,47.1658868 265.8141,46.0489057 L265.8141,46.0489057 Z" id="Shape"/>
                    </g>
                </g>
            </g>
        </g>
    </g>
</svg>