<?xml version="1.0" encoding="UTF-8"?>
<!DOCTYPE svg PUBLIC "-//W3C//DTD SVG 1.1//EN"
  "http://www.w3.org/Graphics/SVG/1.1/DTD/svg11.dtd">
<!-- Created with Inkpad (http://www.taptrix.com/) --><svg xmlns:inkpad="http://taptrix.com/inkpad/svg_extensions" height="74pt" xmlns:xlink="http://www.w3.org/1999/xlink" xmlns="http://www.w3.org/2000/svg" width="176pt" version="1.1" viewBox="0,0,176,74">
<defs/>
<g id="BoundingBox" inkpad:layerName="BoundingBox">
<path d="M1.57411e-06+73.4294L174.549+73.4294L174.549+0L1.57411e-06+0L1.57411e-06+0L1.57411e-06+73.4294Z" opacity="1" fill="none"/>
</g>
<g id="SIEMENS" inkpad:layerName="SIEMENS">
<g opacity="1">
<path d="M18.6964+34.0983L18.6964+30.7528C20.7423+31.352+22.5527+31.6518+24.1275+31.6518C26.3018+31.6518+27.3893+31.117+27.3893+30.0478C27.3893+29.6493+27.2311+29.3145+26.9138+29.0433C26.5895+28.7556+25.7588+28.3568+24.4237+27.8459C22.0283+26.9294+20.4666+26.1476+19.7399+25.5011C18.7983+24.6477+18.3274+23.5713+18.3274+22.2706C18.3274+20.5958+19.0135+19.3192+20.3845+18.442C21.7404+17.5723+23.506+17.1381+25.6839+17.1381C26.8839+17.1381+28.6207+17.3437+30.8928+17.7554L30.8928+20.9736C29.2024+20.3451+27.6333+20.0316+26.1836+20.0316C24.1422+20.0316+23.1215+20.5533+23.1215+21.5989C23.1215+21.9898+23.3271+22.3086+23.7387+22.5557C24.081+22.7556+25.0245+23.1781+26.567+23.8244C28.788+24.7424+30.2663+25.5402+31.003+26.2191C31.8772+27.0242+32.315+28.0659+32.315+29.3429C32.315+31.1782+31.4574+32.5784+29.743+33.543C28.3542+34.3252+26.5531+34.7149+24.3411+34.7149C22.4734+34.7145+20.5915+34.5099+18.6964+34.0983L18.6964+34.0983Z" fill-rule="evenodd" fill="#ffffff" opacity="1"/>
<path d="M35.1865+17.4324L35.1865+17.4324L40.2706+17.4324L40.2706+34.3723L35.1865+34.3723L35.1865+17.4324Z" fill-rule="evenodd" fill="#ffffff" opacity="1"/>
<path d="M44.9333+34.3723L44.9333+17.4324L57.9726+17.4324L57.9726+20.4964L49.8332+20.4964L49.8332+24.3215L56.9183+24.3215L56.9183+27.1162L49.8332+27.1162L49.8332+31.1362L58.1824+31.1362L58.1824+34.3723L44.9333+34.3723Z" fill-rule="evenodd" fill="#ffffff" opacity="1"/>
<path d="M61.5014+34.3723L61.5014+17.4324L68.0933+17.4324L72.6729+28.2563L77.3673+17.4324L83.6285+17.4324L83.6285+34.3723L78.808+34.3723L78.808+22.3785L73.4702+34.5443L70.3186+34.5443L65.0835+22.3785L65.0835+34.3723L61.5014+34.3723Z" fill-rule="evenodd" fill="#ffffff" opacity="1"/>
<path d="M88.2921+34.3723L88.2921+17.4324L101.331+17.4324L101.331+20.4964L93.1926+20.4964L93.1926+24.3215L100.277+24.3215L100.277+27.1162L93.1926+27.1162L93.1926+31.1362L101.543+31.1362L101.543+34.3723L88.2921+34.3723Z" fill-rule="evenodd" fill="#ffffff" opacity="1"/>
<path d="M104.888+34.3723L104.888+17.4324L110.78+17.4324L117.032+28.7723L117.032+17.4324L120.613+17.4324L120.613+34.3723L114.888+34.3723L108.47+22.8798L108.47+34.3723L104.888+34.3723Z" fill-rule="evenodd" fill="#ffffff" opacity="1"/>
<path d="M124.222+34.0983L124.222+30.7528C126.251+31.352+128.061+31.6518+129.654+31.6518C131.829+31.6518+132.915+31.117+132.915+30.0478C132.915+29.6493+132.761+29.3145+132.454+29.0433C132.128+28.7556+131.294+28.3568+129.951+27.8459C127.563+26.937+125.999+26.1555+125.266+25.5011C124.325+24.6553+123.855+23.575+123.855+22.2593C123.855+20.5916+124.539+19.3193+125.912+18.442C127.265+17.5723+129.033+17.1381+131.212+17.1381C132.436+17.1381+134.023+17.3191+135.969+17.6827L136.419+17.7554L136.419+20.9736C134.728+20.3451+133.155+20.0316+131.697+20.0316C129.663+20.0316+128.649+20.5533+128.649+21.5989C128.649+21.9898+128.854+22.3086+129.264+22.5557C129.591+22.7481+130.538+23.1706+132.106+23.8244C134.31+24.7424+135.786+25.5402+136.529+26.2191C137.404+27.0242+137.841+28.0659+137.841+29.3429C137.841+31.1782+136.988+32.5784+135.282+33.543C133.885+34.3252+132.08+34.7149+129.868+34.7149C127.999+34.7145+126.116+34.5099+124.222+34.0983L124.222+34.0983Z" fill-rule="evenodd" fill="#ffffff" opacity="1"/>
</g>
</g>
</svg>
